<svg width="31" height="31" fill="none" xmlns="http://www.w3.org/2000/svg"><path d="M22.445 0H8.555C3.838 0 0 3.838 0 8.555v13.89C0 27.162 3.838 31 8.555 31h13.89C27.162 31 31 27.162 31 22.445V8.555C31 3.838 27.162 0 22.445 0zm5.805 22.445c0 3.2-2.604 5.805-5.805 5.805H8.555a5.81 5.81 0 01-5.805-5.805V8.555c0-3.2 2.604-5.805 5.805-5.805h13.89c3.2 0 5.805 2.604 5.805 5.805v13.89z" fill="#fff"/><path d="M15.5 7.512c-4.405 0-7.988 3.583-7.988 7.988 0 4.404 3.583 7.988 7.988 7.988 4.404 0 7.988-3.584 7.988-7.988 0-4.405-3.584-7.988-7.988-7.988zm0 13.225a5.243 5.243 0 01-5.238-5.237 5.243 5.243 0 015.238-5.238 5.243 5.243 0 015.237 5.238 5.243 5.243 0 01-5.237 5.237zM23.824 5.18c-.53 0-1.05.215-1.425.59a2.027 2.027 0 00-.592 1.427c0 .53.216 1.05.592 1.427.374.374.895.59 1.425.59.531 0 1.05-.216 1.426-.59.376-.376.59-.897.59-1.427 0-.532-.214-1.052-.59-1.426a2.025 2.025 0 00-1.426-.59z" fill="#fff"/></svg>