<svg width="19" height="30" fill="none" xmlns="http://www.w3.org/2000/svg"><path d="M4.15 30c-.1-.03-.21-.06-.31-.08-.65-.17-1.53-1.03-1.45-1.95.04-.44.19-.82.51-1.14 1.85-1.85 3.7-3.7 5.54-5.55.04-.04.07-.08.13-.14-.15-.02-.27-.04-.39-.06-1.24-.15-2.45-.41-3.62-.87-.75-.29-1.43-.71-2.07-1.18-.36-.27-.71-.56-1.04-.88-.3-.29-.48-.66-.46-1.08.05-.84.54-1.73 1.46-1.92.51-.1.99 0 1.42.26.35.21.68.46 1.02.68.68.44 1.43.73 2.21.94.93.25 1.88.4 2.85.42.46.01.92-.05 1.37-.11.94-.12 1.86-.35 2.74-.72.62-.26 1.18-.63 1.72-1.02.39-.28.82-.47 1.31-.49.69-.03 1.2.28 1.55.84.19.3.31.63.35.99.05.48-.15.88-.46 1.22-.4.44-.9.76-1.38 1.1-1.26.89-2.69 1.35-4.19 1.62-.48.09-.97.15-1.48.23.04.04.06.09.1.12l5.37 5.37c.26.26.51.52.61.88.2.69.05 1.29-.45 1.81-.31.33-.67.58-1.13.65-.03 0-.05.02-.08.04h-.35c-.05-.01-.09-.03-.14-.04-.32-.06-.61-.2-.85-.43-.13-.12-.25-.25-.38-.37l-4.06-4.06c-.07-.07-.12-.09-.2-.01-1.37 1.37-2.74 2.74-4.11 4.12-.36.37-.74.7-1.28.76-.01 0-.02.02-.04.02-.1.03-.22.03-.34.03z" fill="#fff"/><path d="M10 15.16a7.577 7.577 0 01-7.57-7.71A7.564 7.564 0 0110.02 0c4.27 0 7.65 3.5 7.57 7.74A7.578 7.578 0 0110 15.16zm3.75-7.58c0-2.07-1.68-3.75-3.75-3.75-2.05 0-3.74 1.68-3.75 3.71-.01 2.1 1.67 3.75 3.66 3.79 2.16.05 3.86-1.71 3.84-3.75z" fill="#fff"/></svg>