<svg width="30" height="18" fill="none" xmlns="http://www.w3.org/2000/svg"><path d="M9.803 1.193c.142-.381.401-.615.732-.787.626-.319 1.299-.417 1.971-.405.968.025 1.936.086 2.892.123.437.024.862.037 1.275.209.614.258.933.737.956 1.412.012.54-.059 1.094-.082 1.647-.036 1.167-.083 2.334-.083 3.5 0 .37.153.738.248 1.106.023.098.094.197.153.283.236.344.307.344.638.123.613-.406 1.074-.959 1.487-1.573a18.816 18.816 0 001.487-2.604c.413-.91.838-1.83 1.228-2.752.189-.467.496-.663.98-.65 1.806.011 3.623.011 5.43 0 .578 0 .99.515.861 1.105-.142.626-.413 1.191-.732 1.72a30.91 30.91 0 01-3.033 4.3c-.402.466-.756.97-.945 1.584-.2.663-.07 1.253.402 1.744.838.872 1.711 1.72 2.526 2.617.484.528.909 1.118 1.334 1.707.271.369.448.811.4 1.302-.058.553-.318.836-.85.86-1.014.062-2.041.099-3.068.148-.59.024-1.192.061-1.783.086-.472.024-.897-.16-1.298-.406-.637-.38-1.18-.896-1.7-1.437-.543-.553-1.05-1.13-1.463-1.806-.26-.43-.98-.663-1.429-.479-.354.135-.519.43-.554.799-.06.614-.095 1.216-.142 1.83-.07.75-.52 1.216-1.24 1.315-1.416.196-2.82.122-4.213-.16-1.027-.209-1.913-.725-2.75-1.352-1.158-.847-2.137-1.891-3.058-2.985a19.496 19.496 0 01-1.298-1.83c-1.31-2.002-2.55-4.042-3.624-6.191C.938 4.264.419 3.244.148 2.102c-.06-.258-.095-.516-.142-.774-.024-.123.024-.221.13-.258C.43.97.726.836 1.02.824c.956-.037 1.924-.037 2.88-.05.413 0 .827.038 1.24.025.554-.024.932.234 1.168.725.236.492.449.995.673 1.487.815 1.769 1.7 3.5 2.857 5.06.165.234.425.419.672.566.296.172.555.086.732-.221.213-.356.307-.762.319-1.18.012-1.179.047-2.358.035-3.537-.011-1.217-.59-2.027-1.7-2.47a.184.184 0 01-.094-.036z" fill="#fff"/></svg>