<svg width="103" height="90" fill="none" xmlns="http://www.w3.org/2000/svg"><path d="M40.623 64.774a1.9 1.9 0 01-1.649-.95l-2.363-4.093a1.9 1.9 0 113.292-1.901l2.364 4.091a1.9 1.9 0 01-1.644 2.853z" fill="#7DB945"/><path d="M55.183 90a1.902 1.902 0 01-1.646-.95l-10.68-18.5a1.9 1.9 0 113.293-1.902l9.729 16.853 41.88-24.18-25.981-45.008-2.812 3.168a1.896 1.896 0 01-1.04.6l-6.114 1.25-4.137 4.67a1.896 1.896 0 01-1.041.601l-6.113 1.25-4.14 4.667a1.896 1.896 0 01-1.041.6l-6.113 1.25-4.14 4.668a1.896 1.896 0 01-1.04.6l-4.15.85 6.097 10.559a1.9 1.9 0 11-3.293 1.901l-7.414-12.842a1.904 1.904 0 011.266-2.815l6.113-1.25 4.14-4.667a1.896 1.896 0 011.041-.6l6.113-1.25 4.14-4.668a1.896 1.896 0 011.04-.6l6.114-1.25 4.14-4.668a1.896 1.896 0 011.04-.6l6.114-1.25 4.14-4.667a1.902 1.902 0 013.07.31l28.256 48.938a1.905 1.905 0 01-.696 2.597L56.142 89.747a1.977 1.977 0 01-.959.253zM29.756 34.294c-.407 0-.815-.13-1.163-.397L10.518 19.916C6.46 16.778 5.28 13.3 5.006 10.934c-.316-2.706.385-5.347 1.92-7.246 1.6-1.978 4.087-3.295 6.82-3.613 2.282-.267 5.825.051 9.737 3.078l22.585 17.47a1.9 1.9 0 01.34 2.667 1.9 1.9 0 01-2.668.34L21.155 6.16c-5.116-3.955-9.545-2.214-11.273-.078C9 7.174 8.59 8.823 8.782 10.494c.19 1.64 1.052 4.083 4.062 6.412l18.075 13.98a1.9 1.9 0 01.34 2.669 1.885 1.885 0 01-1.503.739z" fill="#7DB945"/><path d="M20.438 16.096a1.9 1.9 0 01-1.503-3.065c1.22-1.575 2.09-3.341 2.386-4.841.24-1.21.033-1.875-.163-2.027a1.9 1.9 0 01-.34-2.668 1.9 1.9 0 012.669-.34c1.513 1.172 2.07 3.22 1.567 5.771-.413 2.09-1.516 4.374-3.108 6.434-.378.483-.94.736-1.508.736zM30.755 24.075a1.9 1.9 0 01-1.502-3.065c1.22-1.575 2.088-3.34 2.385-4.84.239-1.21.032-1.875-.163-2.027a1.9 1.9 0 01-.34-2.668 1.9 1.9 0 012.668-.34c1.513 1.171 2.07 3.22 1.568 5.77-.413 2.09-1.516 4.375-3.108 6.434-.378.481-.94.736-1.508.736zM54.065 53.904H1.902A1.9 1.9 0 010 52.002 1.9 1.9 0 011.902 50.1h52.163a1.9 1.9 0 011.902 1.902 1.9 1.9 0 01-1.902 1.902zM45.37 64.771H19.29a1.9 1.9 0 01-1.902-1.901 1.9 1.9 0 011.901-1.902H45.37a1.9 1.9 0 011.902 1.902 1.9 1.9 0 01-1.902 1.901zM30.158 77.812H6.249a1.9 1.9 0 01-1.901-1.902 1.9 1.9 0 011.901-1.901h23.909a1.9 1.9 0 011.902 1.901 1.9 1.9 0 01-1.902 1.902zM60.586 14.781c-.56 0-1.114-.245-1.489-.717l-5.909-7.42-9.436 5.665a1.901 1.901 0 01-1.956-3.26l10.868-6.521a1.903 1.903 0 012.467.446l6.947 8.723c.654.82.518 2.019-.305 2.674-.353.277-.771.41-1.187.41z" fill="#7DB945"/></svg>