<svg width="79" height="90" fill="none" xmlns="http://www.w3.org/2000/svg"><path d="M76.782 87.668H33.881a1.865 1.865 0 01-1.865-1.865V74.611c0-1.03.834-1.865 1.865-1.865h42.901c1.031 0 1.866.835 1.866 1.865v11.192c0 1.03-.835 1.865-1.865 1.865zm-41.036-3.73h39.171v-7.461h-39.17v7.46zM65.593 63.42a1.865 1.865 0 01-1.734-1.18L56.01 42.372c-.809-1.31-1.599-1.965-2.68-2.231l-8.47-.98a1.866 1.866 0 01.43-3.706l8.671 1.004.096.021c2.867.642 4.36 2.647 5.232 4.102l.079.13 7.962 20.16a1.865 1.865 0 01-1.049 2.42 1.95 1.95 0 01-.688.128zM28.285 87.668c-.235 0-.475-.044-.708-.14L4.934 78.224a7.41 7.41 0 01-4.206-3.812 7.411 7.411 0 01-.322-5.624l6.345-25.226.03-.083c.963-2.698 2.821-4.645 5.232-5.484l.173-.052 10.065-2.448a1.863 1.863 0 11.881 3.623l-9.97 2.425c-1.604.593-2.424 1.994-2.837 3.106L3.983 69.862l-.03.086a3.71 3.71 0 00.144 2.859 3.698 3.698 0 002.127 1.914l.088.033 22.682 9.322a1.864 1.864 0 011.017 2.434 1.863 1.863 0 01-1.726 1.158z" fill="#7DB945"/><path d="M33.881 76.477a1.85 1.85 0 01-.755-.161l-16.788-7.461a1.864 1.864 0 01-1.108-1.705v-3.73a1.865 1.865 0 113.731 0v2.518l15.68 6.969a1.863 1.863 0 01.947 2.462 1.87 1.87 0 01-1.707 1.108zM15.229 90a1.865 1.865 0 01-1.866-1.865v-7.697a1.865 1.865 0 113.73 0v7.697c0 1.03-.834 1.865-1.864 1.865zM33.881 38.1a8.416 8.416 0 01-6.12-2.606l-3.934-4.092a10.712 10.712 0 01-3.003-7.459V11.192C20.824 5.02 25.844 0 32.016 0h3.73c6.172 0 11.192 5.02 11.192 11.192v5.596h-3.73v-5.596c0-4.113-3.349-7.461-7.462-7.461h-3.73c-4.113 0-7.461 3.348-7.461 7.46v12.752c0 1.826.697 3.558 1.963 4.876l3.933 4.092a4.718 4.718 0 003.43 1.462c1.306 0 2.525-.52 3.43-1.462l3.933-4.092a7.001 7.001 0 001.964-4.876v-3.425h3.73v3.425c0 2.796-1.068 5.445-3.003 7.46l-3.933 4.091a8.416 8.416 0 01-6.12 2.607z" fill="#7DB945"/><path d="M58.13 14.922H28.285v3.73H58.13v-3.73zM76.783 76.477a1.865 1.865 0 01-1.866-1.866v-.622l-20.89-8.704H24.554a1.865 1.865 0 110-3.73h29.844c.247 0 .49.048.718.144l22.384 9.326c.695.29 1.147.97 1.147 1.721v1.865c0 1.031-.835 1.866-1.865 1.866z" fill="#7DB945"/></svg>