<svg width="111" height="96" fill="none" xmlns="http://www.w3.org/2000/svg"><path d="M17.944 85.11a1.91 1.91 0 01-1.877-1.556l-5.709-30.176a1.914 1.914 0 013.76-.713L19.47 80.96 79.626 69.58 68.869 12.715 8.713 24.096l3.748 19.807a1.914 1.914 0 01-3.76.712L4.597 22.927a1.91 1.91 0 011.523-2.234L70.037 8.602a1.915 1.915 0 012.234 1.523L83.738 70.75a1.914 1.914 0 01-1.523 2.236L18.303 85.077a2.059 2.059 0 01-.359.034z" fill="#7DB945"/><path d="M6.712 24.44c-.638 0-1.246-.32-1.602-.867l-4.8-7.369a1.918 1.918 0 01-.157-1.796 1.904 1.904 0 011.403-1.128l40.907-7.74a1.914 1.914 0 01.713 3.76L5.074 16.508l2.542 3.9 61.326-11.6.693-4.513-15.42 2.917a1.914 1.914 0 01-.713-3.759L71.579.033a1.913 1.913 0 012.246 2.171l-1.308 8.524a1.914 1.914 0 01-1.536 1.59L7.07 24.408a1.978 1.978 0 01-.357.033zM16.67 95.088a1.91 1.91 0 01-1.318-.526 1.908 1.908 0 01-.578-1.646l1.423-10.491c.11-.816.731-1.47 1.54-1.624L81.652 68.71c.84-.16 1.683.258 2.066 1.02l4.687 9.337a1.914 1.914 0 01-1.353 2.739L17.026 95.053c-.12.022-.236.034-.356.034zm3.133-10.783l-.88 6.495 64.924-12.283-2.9-5.78-61.144 11.568z" fill="#7DB945"/><path d="M99.817 95.44c-.237 0-.478-.046-.713-.14l-24.83-9.986a1.913 1.913 0 01.337-3.652 170.59 170.59 0 012.233-.433 1.914 1.914 0 012.26 1.901l19.654 7.904 7.674-19.082-25.34-10.192a1.914 1.914 0 011.427-3.551l27.115 10.905a1.913 1.913 0 011.06 2.487l-9.102 22.63a1.905 1.905 0 01-1.775 1.208z" fill="#7DB945"/><path d="M109.086 72.457c-.242 0-.483-.045-.713-.138l-29.217-11.75a1.914 1.914 0 011.428-3.551l26.215 10.544-.667-5.522-26.328-10.59a1.913 1.913 0 01-3.41-1.54c.105-.488.22-.97.337-1.456a1.911 1.911 0 012.573-1.328l29.306 11.788c.648.26 1.102.854 1.186 1.545l1.191 9.858a1.917 1.917 0 01-.734 1.748 1.939 1.939 0 01-1.167.392zM42.236 50.137l-3.3-1.942v-5.914l5.128 2.987v3.81c0 .801.58 1.382 1.382 1.382.801 0 1.382-.581 1.382-1.382v-2.24l2.26 1.326.04.022c.285.141.481.141.656.141.45 0 .942-.268 1.198-.655l.017-.027c.397-.662.172-1.504-.529-1.925l-2.255-1.274 1.916-1.122c.612-.368.844-1.117.562-1.82l-.048-.096c-.368-.612-1.114-.844-1.82-.562l-3.38 1.978-5.134-2.992 5.135-2.991 3.288 1.934.04.022c.285.14.481.14.656.14.45 0 .942-.267 1.198-.652l.017-.026c.397-.663.172-1.505-.521-1.92l-1.928-1.13 2.289-1.343c.612-.369.844-1.117.562-1.82l-.048-.096c-.368-.612-1.114-.844-1.82-.562l-2.35 1.37v-2.24c0-.802-.582-1.383-1.383-1.383s-1.382.581-1.382 1.382v3.81l-5.128 2.987v-5.77l3.3-1.942c.613-.369.845-1.117.563-1.82l-.048-.096c-.369-.612-1.117-.844-1.82-.562l-1.995 1.205v-2.645c0-.8-.58-1.382-1.382-1.382-.801 0-1.382.581-1.382 1.382v2.67l-1.9-1.113c-.662-.397-1.503-.172-1.915.514-.397.663-.172 1.505.52 1.918l3.295 1.937v5.986l-5.13-2.987V30.8c0-.8-.581-1.382-1.382-1.382-.802 0-1.383.581-1.383 1.383v2.24l-2.255-1.322a1.34 1.34 0 00-1.088-.139 1.46 1.46 0 00-.827.653c-.201.333-.25.72-.14 1.088.104.342.336.636.659.83l2.283 1.342-1.934 1.131c-.613.368-.845 1.117-.562 1.82l.026.065.038.057c.282.423.706.655 1.198.655.175 0 .373 0 .656-.141l3.326-1.956 5.135 2.992-5.135 2.991-3.283-1.93a1.34 1.34 0 00-1.088-.138 1.46 1.46 0 00-.828.653c-.2.332-.249.72-.139 1.088.103.342.335.636.66.83l1.928 1.128-2.289 1.344c-.612.369-.844 1.117-.562 1.82l.027.065.038.057c.282.423.705.655 1.198.655.175 0 .37 0 .655-.14l2.3-1.35v2.241c0 .802.582 1.383 1.383 1.383s1.383-.581 1.383-1.383v-3.81l5.13-2.986v5.986l-3.301 1.942c-.612.368-.844 1.116-.562 1.82l.026.064.039.057c.282.424.705.656 1.198.656.174 0 .373 0 .655-.141l1.944-1.136v2.669c0 .8.581 1.382 1.383 1.382.8 0 1.382-.581 1.382-1.382v-2.67l1.906 1.115.038.022c.285.14.48.14.655.14.45 0 .943-.267 1.198-.654l.06-.091.029-.106c.354-1.289-.122-1.891-.584-2.169zM56.244 64.714l-3.197-1.842 3.197-1.841c.612-.369.844-1.117.562-1.82l-.048-.096c-.368-.612-1.117-.844-1.82-.562l-3.274 1.88V56.76c0-.802-.58-1.383-1.382-1.383-.801 0-1.382.581-1.382 1.383v3.673L45.72 58.6a1.34 1.34 0 00-1.088-.139 1.461 1.461 0 00-.827.653c-.201.332-.249.72-.139 1.088.103.342.335.636.663.832l3.185 1.837-3.197 1.842c-.613.368-.845 1.116-.562 1.82l.026.064.038.058c.282.423.706.655 1.198.655.175 0 .371 0 .655-.141l3.224-1.859v3.674c0 .8.581 1.382 1.383 1.382.8 0 1.382-.581 1.382-1.382V65.31l3.19 1.84.036.019c.285.14.48.14.655.14.45 0 .943-.267 1.198-.654l.017-.027c.397-.662.17-1.504-.514-1.915zM68.33 48.717l-3.198-1.842 3.198-1.841c.612-.368.844-1.117.562-1.82l-.048-.096c-.368-.612-1.117-.844-1.82-.562l-3.274 1.88v-3.673c0-.801-.581-1.383-1.382-1.383-.801 0-1.382.581-1.382 1.383v3.673l-3.179-1.832c-.662-.397-1.504-.172-1.915.514-.201.333-.249.72-.139 1.088.103.342.335.636.663.833l3.185 1.836-3.197 1.842c-.613.368-.845 1.117-.563 1.82l.027.064.038.058c.282.423.706.655 1.198.655.175 0 .37 0 .656-.141l3.226-1.858v3.673c0 .801.58 1.382 1.382 1.382.801 0 1.382-.58 1.382-1.382v-3.673l3.19 1.839.036.019c.285.14.481.14.656.14.45 0 .942-.267 1.198-.654l.038-.058.026-.064c.28-.706.048-1.454-.564-1.82z" fill="#7DB945"/><path d="M79 39.5L83.5 68 90 79" stroke="#fff" stroke-width="2"/></svg>