<svg width="100" height="80" fill="none" xmlns="http://www.w3.org/2000/svg"><g clip-path="url(#clip0)" fill="#7DB945"><path d="M87.711 0H11.49C5.153 0 0 5.139 0 11.456v57.088C0 74.86 5.153 80 11.489 80H87.71C94.047 80 99.2 74.861 99.2 68.544V11.456C99.2 5.14 94.047 0 87.711 0zm7.932 11.456v57.088c0 4.36-3.558 7.907-7.93 7.907H11.49c-4.372 0-7.93-3.548-7.93-7.907V11.456c0-4.36 3.558-7.907 7.93-7.907H87.71c4.374-.002 7.932 3.548 7.932 7.907z"/><path d="M32.675 33.8c2.396 0 4.346-1.945 4.346-4.333 0-2.389-1.95-4.333-4.346-4.333-2.395 0-4.345 1.944-4.345 4.333 0 2.388 1.95 4.333 4.345 4.333zm-.788-4.333a.788.788 0 011.576 0 .788.788 0 01-1.576 0z"/><path d="M77.208 54.855c3.587-3.505 5.87-7.717 6.784-12.523.87-4.581.465-9.481-1.205-14.564-1.571-4.784-5.498-8.3-10.249-9.175-4.309-.795-8.556.719-11.441 4.052-2.566-2.804-5.955-4.322-9.573-4.257a12.313 12.313 0 00-9.125 4.257c-3.34-3.652-8.014-5.085-12.583-3.835-4.646 1.27-8.057 4.978-8.901 9.675-.495 2.752-.504 4.815-.51 6.471-.012 2.54-.019 4.22-1.617 6.5-1.63 2.327-2.848 4.773-3.618 7.276-1.094 3.56.052 7.248 3.07 9.864a12.345 12.345 0 008.097 3.016c1.766 0 3.544-.377 5.207-1.15a31.913 31.913 0 004.62-2.62c3.569 3.752 9.313 4.835 14.08 2.62a32.035 32.035 0 004.62-2.62c2.28 2.397 5.498 3.768 8.881 3.768 3.21 0 5.736-1.179 8.769-3.078.403-.253.683-.645.788-1.108a1.762 1.762 0 00-.229-1.339 1.787 1.787 0 00-2.453-.558 28.94 28.94 0 01-3.181 1.721c-3.266 1.516-7.227.848-9.76-1.61 7.651-6.844 9.99-16.979 6.413-27.868a14.273 14.273 0 00-.869-2.076c1.908-2.755 4.959-4.136 8.203-3.699 3.694.496 6.752 3.132 7.983 6.878 3.027 9.213 1.361 17.542-4.688 23.448a1.772 1.772 0 00-.025 2.511 1.781 1.781 0 002.512.023zm-38.232.781c7.65-6.844 9.99-16.979 6.412-27.868a14.196 14.196 0 00-.869-2.074c1.888-2.717 5.075-4.112 8.366-3.652 3.71.52 6.671 3.199 7.93 7.172 1.878 5.91 1.793 11.6-.247 16.453-2.077 4.947-6.17 8.951-11.833 11.581-3.264 1.516-7.224.848-9.759-1.612zM23.968 35.878c-.076-2.424.074-4.701.448-6.768.508-2.829 2.306-5.148 4.93-6.365A8.664 8.664 0 0133 21.928c1.19 0 2.38.25 3.517.75 2.649 1.163 4.641 3.494 5.61 6.561 3.86 12.23-.66 22.7-12.088 28.007-3.576 1.658-7.314.544-9.436-1.295-1.946-1.688-2.705-3.998-2.035-6.181.66-2.148 1.714-4.262 3.132-6.282a12.654 12.654 0 002.267-7.61z"/><path d="M51.375 25.134c-2.396 0-4.346 1.944-4.346 4.333 0 2.388 1.95 4.333 4.346 4.333 2.395 0 4.345-1.945 4.345-4.333 0-2.389-1.95-4.333-4.345-4.333zm.785 4.333a.788.788 0 01-1.576 0 .788.788 0 011.576 0z"/><path d="M85.039 7.614H41.86c-.98 0-1.78.797-1.78 1.775 0 .978.8 1.775 1.78 1.775h43.175c1.653 0 2.998 1.513 2.998 3.37v50.934c0 1.86-1.346 3.37-2.998 3.37H14.162c-1.652 0-2.997-1.51-2.997-3.37V14.535c0-1.86 1.345-3.371 2.997-3.371h22.31c.981 0 1.78-.797 1.78-1.775 0-.978-.796-1.774-1.78-1.774h-22.31c-3.615 0-6.555 3.105-6.555 6.92v50.933c0 3.815 2.942 6.92 6.555 6.92h70.874c3.616 0 6.557-3.103 6.557-6.92V14.535c0-3.815-2.941-6.92-6.554-6.92z"/><path d="M70.074 25.134c-2.396 0-4.346 1.944-4.346 4.333 0 2.388 1.95 4.333 4.346 4.333 2.395 0 4.345-1.945 4.345-4.333 0-2.389-1.95-4.333-4.345-4.333zm.788 4.333a.788.788 0 01-1.576 0 .788.788 0 011.576 0z"/></g><defs><clipPath id="clip0"><path fill="#fff" d="M0 0h99.2v80H0z"/></clipPath></defs></svg>