<svg width="80" height="90" fill="none" xmlns="http://www.w3.org/2000/svg"><path d="M78.015 46.46h-28.14c1.808-.697 3.51-1.793 5.044-3.278 3.672-3.558 6.27-9.144 6.953-14.94.728-6.197-.816-11.56-4.234-14.72-2.232-2.06-5.155-3.106-8.686-3.106h-.014c-2.213.002-4.653.43-7.266 1.279.23-2.354 1.01-3.411 2.11-4.261 1.244-.962 3.093-1.631 5.755-2.538.783-.247 1.304-1.08 1.188-1.892-.117-.812-.852-1.462-1.678-1.48-.215 0-.421.033-.603.101l-.354.12c-2.383.81-4.638 1.575-6.43 2.96a8.176 8.176 0 00-1.129 1.06 9.594 9.594 0 00-.746-1.357C38.327 2.206 35.878.734 32.492.028c-.107-.02-.22-.029-.327-.026a1.409 1.409 0 00-.138 0l-.032.002a1.752 1.752 0 00-1.51 1.293c-.935 3.628-.58 6.699 1.052 9.128a15.84 15.84 0 00-.65-.011c-3.534 0-6.455 1.045-8.687 3.107-3.42 3.159-4.962 8.522-4.234 14.718.68 5.797 3.28 11.382 6.953 14.94 1.536 1.488 3.241 2.582 5.049 3.278H1.814a1.814 1.814 0 100 3.628H16.61c-.501 2.803-.553 5.611-.601 8.126-.04 2.152-.077 4.184-.395 5.788-.315 1.594-.628 2.685-.961 3.837-.381 1.318-.774 2.683-1.205 4.867-.469 2.386-.15 4.21.11 5.674.167.95.299 1.701.194 2.4-.19 1.285-2.179 4.483-3.53 6.343A1.811 1.811 0 0011.688 90c.56 0 1.113-.258 1.47-.746.63-.869 3.798-5.327 4.186-7.947.188-1.279-.014-2.438-.211-3.558-.236-1.35-.46-2.624-.123-4.345.4-2.03.771-3.318 1.13-4.561.34-1.177.691-2.395 1.036-4.143.379-1.917.417-4.105.463-6.42.05-2.67.102-5.425.65-8.104.32-.1 1.012-.16 1.826.109.624.206 1.73.75 2.146 2.089.594 1.914.558 3.424.521 4.885-.031 1.25-.063 2.544.35 3.869.453 1.456 1.224 2.96 2.292 4.467.987 1.39 3.042 1.418 4.593 1.198 2.76-.395 9.738-1.615 10.035-1.665l.259-.045.24-.118c.002-.002.007-.002.01-.005l11.293-5.608 8.185-8.944a1.915 1.915 0 011.284-.168c.503.108.936.406 1.215.839.89 1.374-.12 2.837-.596 3.404l-6.341 8.312-7.223 8.622C48.154 72.947 35.809 81.47 34 83.283c-2.238 2.238-2.34 4.617-2.345 4.88l3.629.061v.039c.002-.05.086-1.218 1.283-2.413 1.236-1.236 10.514-7.759 16.075-11.58l.204-.14 7.568-9.036 6.339-8.31c1.737-2.088 2.21-4.56 1.344-6.69h9.918a1.814 1.814 0 001.814-1.814 1.82 1.82 0 00-1.814-1.82zM33.483 3.87c1.585.545 2.678 1.332 3.413 2.439.794 1.197 1.209 2.869 1.3 5.23-1.78-.903-3.021-1.894-3.783-3.015-.869-1.279-1.17-2.771-.93-4.653zM39.2 42.977l-.052.02c-4.395 1.826-8.378 1.055-11.836-2.295-3.073-2.978-5.345-7.908-5.926-12.863-.59-5.008.59-9.41 3.152-11.777 1.597-1.475 3.717-2.223 6.303-2.223h.097c2.357.016 5.121.655 8.23 1.9.595.225 1.057.141 1.47.014l.055-.018c6.594-2.642 11.507-2.531 14.6.327 2.554 2.358 3.726 6.76 3.136 11.777-.582 4.966-2.848 9.894-5.91 12.863-3.458 3.352-7.445 4.12-11.847 2.288-.56-.267-1.016-.158-1.472-.013zm.715 3.42c.059.022.117.04.174.06h-.354c.062-.02.12-.038.18-.06zm-8.416 16.802c-.617.089-1.066.073-1.3.039-.746-1.096-1.3-2.19-1.61-3.189-.234-.755-.213-1.612-.186-2.7.038-1.59.088-3.568-.683-6.051a6.768 6.768 0 00-.51-1.21h19.74c-1.11 1.883-2.531 5.806-2.926 6.924l-3.334 4.67c-1.903.329-7.003 1.207-9.191 1.517zM51.626 56.4l-4.29 2.132.026-.08c.715-2.05 2.114-5.685 2.826-6.706 1.057-1.485 2.973-1.657 4.325-1.657h2.89l-5.777 6.311z" fill="#7DB945"/><path d="M32.967 36.596c-1.573-1.438-3.835-4.22-5.03-7.327-1.297-3.38-1.088-6.121.633-8.375.286-.363.413-.815.356-1.273a1.712 1.712 0 00-.646-1.152 1.727 1.727 0 00-2.447.322c-2.411 3.157-2.808 7.319-1.118 11.718 1.195 3.112 3.41 6.341 5.914 8.63a1.72 1.72 0 001.186.473h.048c.46-.01.889-.204 1.206-.537.318-.333.486-.773.472-1.234a1.717 1.717 0 00-.537-1.206l-.037-.039z" fill="#7DB945"/></svg>