<svg width="44" height="23" viewBox="0 0 44 23" fill="none" xmlns="http://www.w3.org/2000/svg">
<path d="M29.0294 0.714355H10.8237C10.2066 0.714355 9.66655 1.24067 9.66655 1.84217V17.8572C9.66655 18.4587 10.2066 18.985 10.8237 18.985H13.6008C14.1408 20.7895 15.7608 22.0677 17.7666 22.0677C19.7723 22.0677 21.3923 20.7895 21.9323 18.985H29.0294C29.6465 18.985 30.1865 18.4587 30.1865 17.8572V1.84217C30.1865 1.24067 29.6465 0.714355 29.0294 0.714355ZM17.7666 19.8121C16.6866 19.8121 15.7608 18.9098 15.7608 17.8572C15.7608 16.8046 16.6866 15.9023 17.7666 15.9023C18.8466 15.9023 19.7723 16.8046 19.7723 17.8572C19.7723 18.9098 18.8466 19.8121 17.7666 19.8121ZM28.3125 16.7294H21.8551C21.3151 14.9249 19.6951 13.6467 17.6894 13.6467C15.6837 13.6467 14.0637 14.9249 13.5237 16.7294H11.9037V2.96999H27.7951V16.7294H28.3125ZM7.63512 5.07526H3.46941C2.85227 5.07526 2.31227 4.54894 2.31227 3.94744C2.31227 3.34593 2.85227 2.81962 3.46941 2.81962H7.63512C8.25226 2.81962 8.79226 3.34593 8.79226 3.94744C8.79226 4.54894 8.32941 5.07526 7.63512 5.07526ZM5.89512 9.8121H1.72941C1.11227 9.8121 0.572266 9.28578 0.572266 8.68428C0.572266 8.08278 1.11227 7.55646 1.72941 7.55646H5.89512C6.51227 7.55646 7.05227 8.08278 7.05227 8.68428C7.05227 9.28578 6.51227 9.8121 5.89512 9.8121ZM9.52084 13.4211C9.52084 14.0226 8.98084 14.5489 8.3637 14.5489H4.19798C3.58084 14.5489 3.04084 14.0226 3.04084 13.4211C3.04084 12.8196 3.58084 12.2933 4.19798 12.2933H8.3637C8.98084 12.2933 9.52084 12.8196 9.52084 13.4211ZM43.3008 11.5414L38.518 4.32338C38.2865 4.02263 37.9008 3.79706 37.5151 3.79706H31.7294V6.0527H36.898L41.1408 12.5189V16.8046H40.2151C39.6751 15.0001 38.0551 13.7219 36.0494 13.7219C33.658 13.7219 31.7294 15.6016 31.7294 17.9324C31.7294 20.2632 33.658 22.1429 36.0494 22.1429C38.0551 22.1429 39.6751 20.8647 40.2151 19.0602H42.298C42.9151 19.0602 43.4551 18.5339 43.4551 17.9324V12.1429C43.4551 11.9174 43.378 11.6918 43.3008 11.5414ZM36.0494 19.8121C34.9694 19.8121 34.0437 18.9098 34.0437 17.8572C34.0437 16.8046 34.9694 15.9023 36.0494 15.9023C37.1294 15.9023 38.0551 16.8046 38.0551 17.8572C38.0551 18.9098 37.1294 19.8121 36.0494 19.8121Z" fill="white" stroke="#7DB945" stroke-linecap="square"/>
</svg>
