<svg width="30" height="20" viewBox="0 0 30 20" fill="none" xmlns="http://www.w3.org/2000/svg">
<mask id="path-1-inside-1" fill="white">
<path fill-rule="evenodd" clip-rule="evenodd" d="M29.011 1.57129C29.011 1.019 28.5633 0.571289 28.011 0.571289H1C0.447715 0.571289 0 1.019 0 1.57129V7.20849C0 7.56939 0.364534 7.82412 0.725434 7.82412C1.92711 7.82412 2.90126 8.79827 2.90126 9.99994C2.90126 11.2016 1.92711 12.1758 0.725434 12.1758C0.364535 12.1758 0 12.4305 0 12.7914V18.4284C0 18.9807 0.447716 19.4284 1 19.4284H28.011C28.5633 19.4284 29.011 18.9807 29.011 18.4284V1.57129Z"/>
</mask>
<path d="M0.725434 10.6758C-0.102994 10.6758 -0.774566 11.3473 -0.774566 12.1758C-0.774566 13.0042 -0.102994 13.6758 0.725434 13.6758V10.6758ZM1 2.07129H28.011V-0.928711H1V2.07129ZM1.5 7.20849V1.57129H-1.5V7.20849H1.5ZM0.725434 9.32412C1.09868 9.32412 1.40126 9.6267 1.40126 9.99994H4.40126C4.40126 7.96984 2.75553 6.32412 0.725434 6.32412V9.32412ZM1.40126 9.99994C1.40126 10.3732 1.09868 10.6758 0.725434 10.6758V13.6758C2.75554 13.6758 4.40126 12.03 4.40126 9.99994H1.40126ZM1.5 18.4284V12.7914H-1.5V18.4284H1.5ZM28.011 17.9284H1V20.9284H28.011V17.9284ZM27.511 1.57129V18.4284H30.511V1.57129H27.511ZM28.011 20.9284C29.3917 20.9284 30.511 19.8091 30.511 18.4284H27.511C27.511 18.1523 27.7348 17.9284 28.011 17.9284V20.9284ZM-1.5 18.4284C-1.5 19.8091 -0.38071 20.9284 1 20.9284V17.9284C1.27614 17.9284 1.5 18.1523 1.5 18.4284H-1.5ZM-1.5 7.20849C-1.5 7.93338 -1.12608 8.49043 -0.7086 8.8238C-0.302613 9.14798 0.209924 9.32412 0.725434 9.32412V6.32412C0.880044 6.32412 1.02986 6.37289 1.16336 6.47949C1.30835 6.59527 1.5 6.84451 1.5 7.20849H-1.5ZM0.725434 10.6758C0.209923 10.6758 -0.302614 10.8519 -0.708601 11.1761C-1.12608 11.5095 -1.5 12.0665 -1.5 12.7914H1.5C1.5 13.1554 1.30835 13.4046 1.16336 13.5204C1.02987 13.627 0.880045 13.6758 0.725434 13.6758V10.6758ZM28.011 2.07129C27.7348 2.07129 27.511 1.84743 27.511 1.57129H30.511C30.511 0.190576 29.3917 -0.928711 28.011 -0.928711V2.07129ZM1 -0.928711C-0.380712 -0.928711 -1.5 0.190578 -1.5 1.57129H1.5C1.5 1.84743 1.27614 2.07129 1 2.07129V-0.928711Z" fill="white" mask="url(#path-1-inside-1)"/>
<rect x="7.71289" y="3.14282" width="0.857143" height="2.57143" fill="white" stroke="white" stroke-width="0.5"/>
<rect x="7.71289" y="7.42871" width="0.857143" height="2.57143" fill="white" stroke="white" stroke-width="0.5"/>
<rect x="7.71289" y="11.7141" width="0.857143" height="2.57143" fill="white" stroke="white" stroke-width="0.5"/>
<rect x="7.71289" y="16" width="0.857143" height="2.57143" fill="white" stroke="white" stroke-width="0.5"/>
<path d="M16.9429 8.70886C17.8962 8.70886 18.6691 7.93604 18.6691 6.98273C18.6691 6.02941 17.8962 5.25659 16.9429 5.25659C15.9896 5.25659 15.2168 6.02941 15.2168 6.98273C15.2168 7.93604 15.9896 8.70886 16.9429 8.70886Z" stroke="white" stroke-width="1.2"/>
<path d="M22.6226 14.5348C23.5759 14.5348 24.3488 13.762 24.3488 12.8087C24.3488 11.8553 23.5759 11.0825 22.6226 11.0825C21.6693 11.0825 20.8965 11.8553 20.8965 12.8087C20.8965 13.762 21.6693 14.5348 22.6226 14.5348Z" stroke="white" stroke-width="1.2"/>
<path d="M24.6597 6.04511C24.8785 5.82637 24.8785 5.47172 24.6597 5.25299C24.441 5.03425 24.0863 5.03426 23.8676 5.253L14.969 14.1516C14.7503 14.3704 14.7503 14.725 14.969 14.9437C15.1877 15.1625 15.5424 15.1625 15.7611 14.9437L24.6597 6.04511Z" fill="white"/>
</svg>
