<svg width="150" height="42" fill="none" xmlns="http://www.w3.org/2000/svg">
        <g clip-path="url(#clip0)">
          <path
            d="M47.268 0h4.221l4.813 15.04L61.082 0h4.247l-6.64 19.57h-4.812L47.267 0zM80.216 12.58c0 4.164-3.095 7.38-6.867 7.38-2.055 0-3.544-.755-4.559-2.041v7.24h-3.63V5.591h3.63v1.651c1.015-1.286 2.504-2.041 4.559-2.041 3.772-.004 6.867 3.213 6.867 7.377zm-3.63 0c0-2.35-1.662-3.942-3.91-3.942-2.224 0-3.886 1.595-3.886 3.941 0 2.35 1.662 3.942 3.885 3.942 2.25.003 3.911-1.592 3.911-3.942zM89.925 5.313V9.34c-1.886-.223-4.277.614-4.277 3.552v6.681h-3.63V5.593h3.63v2.405c.73-1.904 2.504-2.685 4.278-2.685zM90.008 12.58c0-4.165 3.293-7.382 7.429-7.382 4.135 0 7.455 3.217 7.455 7.381 0 4.165-3.32 7.381-7.455 7.381-4.136 0-7.43-3.213-7.43-7.38zm11.254 0c0-2.265-1.662-3.86-3.829-3.86-2.137 0-3.799 1.595-3.799 3.86 0 2.264 1.662 3.859 3.799 3.859 2.17 0 3.829-1.595 3.829-3.86zM115.445 19.57l-5.119-6.348v6.348h-3.631V0h3.631v11.743l4.839-6.15h4.333l-5.654 6.904 5.823 7.073h-4.222zM120.422 17.558a2.383 2.383 0 012.391-2.376 2.384 2.384 0 012.392 2.376 2.384 2.384 0 01-2.392 2.376 2.383 2.383 0 01-2.391-2.376zM135.392 5.313V9.34c-1.886-.223-4.277.614-4.277 3.552v6.681h-3.631V5.593h3.631v2.405c.733-1.904 2.503-2.685 4.277-2.685zM149.66 5.593V19.57h-3.631v-1.566c-.846 1.257-2.309 1.956-4.191 1.956-2.983 0-5.318-2.067-5.318-5.786V5.594h3.63v8.135c0 1.9 1.152 2.878 2.784 2.878 1.774 0 3.095-1.033 3.095-3.465V5.593h3.631zM58.758 38.247h-2.25v-9.203h-4.026v9.203h-2.25V26.906h8.526v11.341zM64.694 36.578c.816 0 1.467-.343 1.826-.811l1.695.97c-.767 1.101-1.99 1.733-3.555 1.733-2.74 0-4.469-1.863-4.469-4.276s1.744-4.276 4.304-4.276c2.414 0 4.125 1.896 4.125 4.276 0 .309-.034.584-.083.859h-6.149c.3 1.07 1.198 1.525 2.306 1.525zm1.83-3.143c-.262-1.167-1.142-1.636-2.021-1.636-1.127 0-1.89.6-2.137 1.636h4.158zM78.657 34.198c0 2.413-1.792 4.276-3.978 4.276-1.19 0-2.055-.439-2.642-1.183v4.198h-2.103V30.15h2.103v.955c.587-.744 1.452-1.182 2.642-1.182 2.186-.004 3.978 1.859 3.978 4.276zm-2.103 0c0-1.361-.962-2.283-2.268-2.283-1.287 0-2.25.922-2.25 2.283 0 1.36.963 2.283 2.25 2.283 1.306 0 2.268-.922 2.268-2.283zM84.057 36.578c.816 0 1.467-.343 1.826-.811l1.696.97c-.768 1.101-1.991 1.733-3.556 1.733-2.74 0-4.468-1.863-4.468-4.276s1.744-4.276 4.304-4.276c2.413 0 4.128 1.896 4.128 4.276 0 .309-.034.584-.083.859h-6.149c.296 1.07 1.19 1.525 2.302 1.525zm1.826-3.143c-.262-1.167-1.141-1.636-2.02-1.636-1.127 0-1.89.6-2.138 1.636h4.158zM94.364 38.247l-2.968-3.677v3.677h-2.103v-8.102h2.103v3.566l2.807-3.566h2.511l-3.278 4 3.376 4.102h-2.448zM106.419 34.198c0 2.413-1.793 4.276-3.978 4.276-1.19 0-2.055-.439-2.642-1.183v4.198h-2.104V30.15H99.8v.955c.587-.744 1.452-1.182 2.642-1.182 2.185-.004 3.978 1.859 3.978 4.276zm-2.103 0c0-1.361-.962-2.283-2.268-2.283-1.288 0-2.25.922-2.25 2.283 0 1.36.962 2.283 2.25 2.283 1.306 0 2.268-.922 2.268-2.283zM111.819 36.577c.816 0 1.467-.342 1.826-.81l1.695.97c-.767 1.101-1.991 1.733-3.555 1.733-2.74 0-4.469-1.863-4.469-4.276s1.744-4.276 4.304-4.276c2.414 0 4.128 1.896 4.128 4.276 0 .309-.033.584-.082.859h-6.149c.296 1.07 1.19 1.524 2.302 1.524zm-2.953-8.377c0-.599.505-1.1 1.108-1.1.602 0 1.092.501 1.092 1.1a1.09 1.09 0 01-1.092 1.086c-.603 0-1.108-.487-1.108-1.086zm4.779 5.235c-.262-1.167-1.141-1.636-2.021-1.636-1.126 0-1.89.599-2.137 1.636h4.158zm-1.68-5.235c0-.599.505-1.1 1.107-1.1.603 0 1.093.501 1.093 1.1a1.09 1.09 0 01-1.093 1.086c-.602 0-1.107-.487-1.107-1.086zM116.564 34.198c0-2.413 1.827-4.276 4.304-4.276 1.598 0 2.983.844 3.653 2.09l-1.811 1.052c-.326-.666-1.03-1.086-1.86-1.086-1.258 0-2.186.922-2.186 2.22 0 1.279.928 2.205 2.186 2.205.849 0 1.549-.406 1.875-1.071l1.826 1.037c-.7 1.264-2.088 2.105-3.686 2.105-2.474 0-4.301-1.863-4.301-4.276zM132.321 32.156h-2.545v6.095h-2.104v-6.095h-2.578v-2.008h7.227v2.008zM132.533 34.198c0-2.413 1.909-4.276 4.304-4.276 2.399 0 4.323 1.863 4.323 4.276s-1.924 4.276-4.323 4.276c-2.399 0-4.304-1.863-4.304-4.276zm6.523 0c0-1.313-.961-2.235-2.219-2.235-1.239 0-2.201.922-2.201 2.235 0 1.312.962 2.234 2.201 2.234 1.258 0 2.219-.922 2.219-2.234zM147.554 38.247l-2.968-3.677v3.677h-2.104v-8.102h2.104v3.566l2.807-3.566h2.511l-3.279 4 3.376 4.102h-2.447zM30.633.048H7.803C3.51.048 0 3.536 0 7.798v22.681c0 4.262 3.51 7.75 7.8 7.75h22.829c4.289 0 7.8-3.488 7.8-7.75V7.797c.003-4.26-3.508-7.749-7.797-7.749z"
            fill="#fff" />
          <path
            d="M19.401 13.349l-5.823 5.793 5.823 5.793c3.219 3.198 8.432 3.198 11.647 0a8.154 8.154 0 000-11.582c-3.215-3.202-8.428-3.202-11.646-.004zM8.859 19.142L3.035 13.35a8.007 8.007 0 00-1.38-1.097v13.776c.49-.308.954-.669 1.38-1.096l5.824-5.79zM17.04 27.278l-5.823-5.79-5.823 5.79c-1.95 1.937-2.703 4.625-2.29 7.135A6.156 6.156 0 007.8 36.59h10.857a8.151 8.151 0 00-1.617-9.311zM5.393 11.003l5.824 5.793 5.823-5.793a8.16 8.16 0 001.61-9.315H7.8c-1.883 0-3.57.848-4.7 2.175-.409 2.514.347 5.206 2.293 7.14z"
            fill="#054146" />
        </g>
        <defs>
          <clipPath id="clip0">
            <path fill="#fff" d="M0 0h150v41.489H0z" />
          </clipPath>
        </defs>
</svg>